<svg width="16" height="16" viewBox="0 0 16 16" fill="none" xmlns="http://www.w3.org/2000/svg"><g><path d="M0 12.9296L10.4084 12.9187V14.1878L0 14.1987V12.9296ZM2.07281 8.8263L4.27253 9.41854C5.09944 9.673 5.98375 9.673 6.81066 9.41854L15.1442 6.96501C15.4513 6.86757 15.7078 6.65323 15.8582 6.36828C16.0086 6.08333 16.0408 5.75065 15.9479 5.44212C15.8683 5.13986 15.6725 4.88131 15.4031 4.72284C15.1337 4.56436 14.8125 4.5188 14.5097 4.59608L10.5333 5.73824L5.16087 2.05794C4.91044 1.89062 4.61602 1.80131 4.31483 1.80131C4.01364 1.80131 3.71922 1.89062 3.46878 2.05794L2.87655 2.48097L6.38764 6.9227L4.18792 7.51494L1.77669 6.11896C1.56289 5.99777 1.31569 5.94878 1.07182 5.97926C0.827953 6.00975 0.600422 6.11808 0.423022 6.28817L0.126907 6.58429L1.43828 8.40328C1.58982 8.6183 1.81605 8.76912 2.07281 8.8263Z" fill="currentColor"></path></g></svg>